<svg id="visual" viewBox="0 0 900 600" width="900" height="600" xmlns="http://www.w3.org/2000/svg" xmlns:xlink="http://www.w3.org/1999/xlink" version="1.1"><rect x="0" y="0" width="900" height="600" fill="#FFFFFF"></rect><path d="M0 360L21.5 373.7C43 387.3 86 414.7 128.8 416.3C171.7 418 214.3 394 257.2 392.5C300 391 343 412 385.8 414.8C428.7 417.7 471.3 402.3 514.2 401.7C557 401 600 415 642.8 424.8C685.7 434.7 728.3 440.3 771.2 433.3C814 426.3 857 406.7 878.5 396.8L900 387L900 601L878.5 601C857 601 814 601 771.2 601C728.3 601 685.7 601 642.8 601C600 601 557 601 514.2 601C471.3 601 428.7 601 385.8 601C343 601 300 601 257.2 601C214.3 601 171.7 601 128.8 601C86 601 43 601 21.5 601L0 601Z" fill="#6198ff"></path><path d="M0 399L21.5 403C43 407 86 415 128.8 424.3C171.7 433.7 214.3 444.3 257.2 449.5C300 454.7 343 454.3 385.8 450.5C428.7 446.7 471.3 439.3 514.2 441.8C557 444.3 600 456.7 642.8 454.8C685.7 453 728.3 437 771.2 437.8C814 438.7 857 456.3 878.5 465.2L900 474L900 601L878.5 601C857 601 814 601 771.2 601C728.3 601 685.7 601 642.8 601C600 601 557 601 514.2 601C471.3 601 428.7 601 385.8 601C343 601 300 601 257.2 601C214.3 601 171.7 601 128.8 601C86 601 43 601 21.5 601L0 601Z" fill="#3c80ff"></path><path d="M0 480L21.5 484.2C43 488.3 86 496.7 128.8 498C171.7 499.3 214.3 493.7 257.2 489.7C300 485.7 343 483.3 385.8 481.2C428.7 479 471.3 477 514.2 481.2C557 485.3 600 495.7 642.8 501.2C685.7 506.7 728.3 507.3 771.2 500C814 492.7 857 477.3 878.5 469.7L900 462L900 601L878.5 601C857 601 814 601 771.2 601C728.3 601 685.7 601 642.8 601C600 601 557 601 514.2 601C471.3 601 428.7 601 385.8 601C343 601 300 601 257.2 601C214.3 601 171.7 601 128.8 601C86 601 43 601 21.5 601L0 601Z" fill="#0066ff"></path><path d="M0 505L21.5 511.2C43 517.3 86 529.7 128.8 530.5C171.7 531.3 214.3 520.7 257.2 516.3C300 512 343 514 385.8 510.7C428.7 507.3 471.3 498.7 514.2 497.3C557 496 600 502 642.8 503.5C685.7 505 728.3 502 771.2 506C814 510 857 521 878.5 526.5L900 532L900 601L878.5 601C857 601 814 601 771.2 601C728.3 601 685.7 601 642.8 601C600 601 557 601 514.2 601C471.3 601 428.7 601 385.8 601C343 601 300 601 257.2 601C214.3 601 171.7 601 128.8 601C86 601 43 601 21.5 601L0 601Z" fill="#0059dd"></path><path d="M0 537L21.5 542.2C43 547.3 86 557.7 128.8 558.8C171.7 560 214.3 552 257.2 548C300 544 343 544 385.8 544.3C428.7 544.7 471.3 545.3 514.2 544.3C557 543.3 600 540.7 642.8 537.3C685.7 534 728.3 530 771.2 533.7C814 537.3 857 548.7 878.5 554.3L900 560L900 601L878.5 601C857 601 814 601 771.2 601C728.3 601 685.7 601 642.8 601C600 601 557 601 514.2 601C471.3 601 428.7 601 385.8 601C343 601 300 601 257.2 601C214.3 601 171.7 601 128.8 601C86 601 43 601 21.5 601L0 601Z" fill="#004cbb"></path></svg>